<svg xmlns="http://www.w3.org/2000/svg" viewBox="0 0 287.37 252.91"><defs><style>.cls-1{fill:#0a1824;}.cls-2{fill:#fff;}.cls-3{fill:#faf396;}.cls-4{fill:#636464;}.cls-5{fill:#959695;}.cls-6{fill:#7b7b7b;}.cls-7{fill:#c3a881;}.cls-8{fill:#af9679;}.cls-9{fill:#a5a4a4;}.cls-10{fill:#529351;}</style></defs><title>Asset 2</title><g id="Layer_2" data-name="Layer 2"><g id="Layer_7" data-name="Layer 7"><path class="cls-1" d="M277.91,133.22A134.27,134.27,0,0,0,86,13h0L61,14,31.46,36.69l-7.1,22.73,1,11.49A133.46,133.46,0,0,0,9.47,133.22Z"/><polygon class="cls-2" points="168.63 29.15 170.18 30.08 171.98 30.03 171.06 31.57 171.11 33.38 169.56 32.45 167.76 32.5 168.69 30.95 168.63 29.15"/><path class="cls-2" d="M167.74,30.78l-.81,2.39,2.77.37s-8.36,2.24-14.56,18A34,34,0,0,1,167.74,30.78Z"/><path class="cls-2" d="M29.46,68.6A53.45,53.45,0,0,1,100,18a53.45,53.45,0,1,0-45.82,95.7A53.39,53.39,0,0,1,29.46,68.6Z"/><path class="cls-3" d="M90.43,13.12a53.44,53.44,0,0,0-46.71,95.69c.7.26,1.4.52,2.11.76a53.45,53.45,0,0,1,45.82-95.7C91.25,13.61,90.84,13.37,90.43,13.12Z"/><polygon class="cls-4" points="46.53 143.57 155.86 252.91 265.09 143.69 46.53 143.57"/><polygon class="cls-5" points="277.92 143.69 215.35 206.25 152.79 143.69 277.92 143.69"/><polygon class="cls-6" points="113.98 174.97 149.03 210.02 215.41 143.63 113.98 143.63 113.98 174.97"/><rect class="cls-7" y="124.78" width="287.37" height="18.91" rx="9.45"/><polygon class="cls-7" points="224.61 124.78 117.03 17.2 9.45 124.78 224.61 124.78"/><polygon class="cls-8" points="274.72 124.78 195.37 45.42 116.01 124.78 274.72 124.78"/><polygon class="cls-9" points="9.45 143.69 77.36 211.59 145.26 143.69 9.45 143.69"/><path class="cls-10" d="M87,97.18h0a1.59,1.59,0,0,1,1.59,1.59v26a0,0,0,0,1,0,0H85.37a0,0,0,0,1,0,0v-26A1.59,1.59,0,0,1,87,97.18Z"/><rect class="cls-10" x="81.32" y="112.68" width="3.18" height="9.29" rx="1.59" transform="translate(-34.41 200.24) rotate(-90)"/><rect class="cls-10" x="78.27" y="101.12" width="3.18" height="17.78" rx="1.59" transform="translate(159.72 220.02) rotate(-180)"/><rect class="cls-10" x="89.02" y="106.52" width="3.18" height="9.29" rx="1.59" transform="translate(-20.56 201.77) rotate(-90)"/><rect class="cls-10" x="92.07" y="98.98" width="3.18" height="13.76" rx="1.59"/><path class="cls-10" d="M256.18,97.18h3.18a0,0,0,0,1,0,0v26a1.59,1.59,0,0,1-1.59,1.59h0a1.59,1.59,0,0,1-1.59-1.59v-26A0,0,0,0,1,256.18,97.18Z" transform="translate(515.55 221.96) rotate(180)"/><rect class="cls-10" x="260.23" y="112.68" width="3.18" height="9.29" rx="1.59" transform="translate(144.5 379.15) rotate(-90)"/><rect class="cls-10" x="263.28" y="101.12" width="3.18" height="17.78" rx="1.59"/><rect class="cls-10" x="252.53" y="106.52" width="3.18" height="9.29" rx="1.59" transform="translate(142.96 365.29) rotate(-90)"/><rect class="cls-10" x="249.48" y="98.98" width="3.18" height="13.76" rx="1.59" transform="translate(502.14 211.72) rotate(180)"/><path class="cls-10" d="M115.1,91.32h0a1.59,1.59,0,0,1,1.59,1.59v31.87a0,0,0,0,1,0,0h-3.18a0,0,0,0,1,0,0V92.91A1.59,1.59,0,0,1,115.1,91.32Z"/><rect class="cls-10" x="109.46" y="106.81" width="3.18" height="9.29" rx="1.59" transform="translate(-0.41 222.51) rotate(-90)"/><rect class="cls-10" x="106.4" y="95.26" width="3.18" height="17.78" rx="1.59" transform="translate(215.99 208.29) rotate(-180)"/><rect class="cls-10" x="117.15" y="92.63" width="3.18" height="9.29" rx="1.59" transform="translate(21.48 216.01) rotate(-90)"/><rect class="cls-10" x="120.21" y="85.1" width="3.18" height="13.76" rx="1.59"/><rect class="cls-10" x="117.15" y="111.63" width="3.18" height="9.29" rx="1.59" transform="translate(2.48 235.01) rotate(-90)"/><rect class="cls-10" x="120.21" y="108.78" width="3.18" height="9.08" rx="1.59"/><polygon class="cls-2" points="127.47 10.78 128.6 12.85 130.68 13.99 128.6 15.13 127.47 17.2 126.33 15.13 124.25 13.99 126.33 12.85 127.47 10.78"/><polygon class="cls-2" points="96.87 22.74 98.01 24.82 100.09 25.95 98.01 27.09 96.87 29.17 95.74 27.09 93.66 25.95 95.74 24.82 96.87 22.74"/><polygon class="cls-2" points="86.87 36.72 87.7 38.23 89.21 39.06 87.7 39.89 86.87 41.4 86.05 39.89 84.53 39.06 86.05 38.23 86.87 36.72"/><polygon class="cls-2" points="82.2 29.73 82.82 30.88 83.97 31.51 82.82 32.13 82.2 33.28 81.57 32.13 80.42 31.51 81.57 30.88 82.2 29.73"/><polygon class="cls-2" points="230.56 72.4 231.22 73.62 232.44 74.29 231.22 74.95 230.56 76.17 229.89 74.95 228.68 74.29 229.89 73.62 230.56 72.4"/><polygon class="cls-2" points="226.36 58.36 227.18 59.86 228.68 60.68 227.18 61.5 226.36 63 225.54 61.5 224.04 60.68 225.54 59.86 226.36 58.36"/><polygon class="cls-2" points="214.18 57.32 214.88 58.59 216.15 59.29 214.88 59.99 214.18 61.26 213.49 59.99 212.21 59.29 213.49 58.59 214.18 57.32"/><polygon class="cls-2" points="208.57 43.13 209.39 44.63 210.89 45.45 209.39 46.27 208.57 47.76 207.76 46.27 206.26 45.45 207.76 44.63 208.57 43.13"/><polygon class="cls-2" points="182.97 48.13 183.79 49.63 185.29 50.45 183.79 51.26 182.97 52.76 182.15 51.26 180.66 50.45 182.15 49.63 182.97 48.13"/><polygon class="cls-2" points="143.33 21.01 144.21 22.61 145.81 23.48 144.21 24.36 143.33 25.95 142.46 24.36 140.86 23.48 142.46 22.61 143.33 21.01"/><path class="cls-1" d="M153.73,124.7s2.62.46,3,.06-2.26-1.63-2.23-3.48.56-6.33,1.3-6.76,1.14-2.12,1.21-2.71a10.2,10.2,0,0,1,.11,4.88c-.67,2,1,3.53,1.35,4a15.47,15.47,0,0,1,1.74,4.15c.06.81,2.22.45,2.27,0s-2.3-4.6-2.58-5.58-1.92-4.28,2.19-7.37c1.43-1.2,2.46,1.55,7.32,1,.63,0,.28,5-.1,5.67a7.33,7.33,0,0,1-4.13,2.84c-1.91.35-.39,2.62-.39,2.62s5-3.52,5.35-4.24,1.21,4.11,1.11,4.89,3.28-.18,3.29-.52-2.57-1.26-2.62-5.12.13-6.82.13-6.82.89-2,2.75-2,5.55.3,9.45-5.14c1.41-2,4.38-1.78,4.38-1.78a1.49,1.49,0,0,0-1.38-2.07c-2-.23-4.91-1-6.2.51s-2.45,5.72-6.39,2.53-2.46-2.14-6-3.38-3.55-5.55-8-.77c-3.61,3.9-3.43-.66-6.62,6.11-2.08,4.2.46,6.59-1.14,8.85s.2,5.08.38,5.91S153.73,124.7,153.73,124.7Z"/></g></g></svg>