<svg xmlns="http://www.w3.org/2000/svg" viewBox="0 0 287.37 230.71"><defs><style>.cls-1{fill:#a5a4a4;}.cls-2{fill:#559156;}.cls-3{fill:#959695;}.cls-4{fill:#707071;}.cls-5{fill:#66af68;}.cls-6{fill:#fff;}.cls-7{fill:#5f9e5f;}.cls-8{fill:#3d71a4;}.cls-9{fill:#4780c2;}.cls-10{fill:#bfbb99;}.cls-11{fill:#7f7365;}.cls-12{fill:#b3b3b3;}.cls-13{fill:#10112a;}.cls-14{fill:#c13533;}.cls-15{fill:#0c1528;}</style></defs><title>Asset 1</title><g id="Layer_2" data-name="Layer 2"><g id="Layer_5" data-name="Layer 5"><path class="cls-1" d="M31.29,126.51C74.29,126.51,66.91,0,110.43,0s63.39,126.51,139.23,126.51Z"/><path class="cls-2" d="M110.43,126.51c33.26,0,29.18-99.84,83-99.84s51.81,99.84,84.52,99.84Z"/><polygon class="cls-1" points="9.45 145.42 94.74 230.71 180.28 145.17 9.45 145.42"/><polyline class="cls-3" points="277.92 145.42 222.16 201.18 166.17 145.19"/><rect class="cls-4" x="163.2" y="156.38" width="36.57" height="59.96" transform="translate(-78.62 182.91) rotate(-45)"/><path class="cls-5" d="M277.92,126.51H143.69c-37.13,0-35-73.52-71-73.52S41.19,126.51,9.45,126.51a9.46,9.46,0,0,0,0,18.91v37.31a5.39,5.39,0,0,0,10.78,0V160A5.39,5.39,0,1,1,31,160v12.39a5.39,5.39,0,0,0,10.78,0v-9.67a5.39,5.39,0,1,1,10.77,0v3.14a5.38,5.38,0,0,0,5.39,5.38h0a5.38,5.38,0,0,0,5.39-5.38v-15.2a5.38,5.38,0,0,1,4.18-5.24H207.77a5.38,5.38,0,0,1,4.18,5.24V162a5.39,5.39,0,0,0,10.78,0v.68a5.39,5.39,0,1,1,10.77,0v8.06a5.39,5.39,0,0,0,10.78,0V152.23a5.39,5.39,0,0,1,10.77,0v2.43a5.39,5.39,0,1,0,10.78,0v-4a5.39,5.39,0,0,1,4.29-5.28h2.18a5.39,5.39,0,0,1,4.3,5.28v19.17a5.39,5.39,0,1,0,10.77,0V136A9.46,9.46,0,0,0,277.92,126.51Z"/><path class="cls-6" d="M80,40.82h0a5.39,5.39,0,0,0,5.39-5.39v.69a5.39,5.39,0,1,1,10.77,0v8.05a5.39,5.39,0,0,0,10.78,0V21.45a5.39,5.39,0,1,1,10.77,0v6.68a5.39,5.39,0,0,0,10.78,0v-4a5.39,5.39,0,0,1,10.77,0v20a5.39,5.39,0,1,0,10.78,0V34.33C137.46,14.83,125.33,0,110.43,0,94.06,0,84.9,17.89,77.54,40.22A5.36,5.36,0,0,0,80,40.82Z"/><path class="cls-7" d="M9.37,126.51C41.11,126.51,36.53,53,72.58,53s33.9,73.52,71,73.52Z"/><path class="cls-8" d="M121.17,126.51V210a3.22,3.22,0,1,0,6.43,0v-4.15a3.22,3.22,0,1,1,6.44,0v11.42a3.22,3.22,0,1,0,6.43,0V194.67a3.22,3.22,0,1,1,6.43,0v10.41a3.22,3.22,0,1,0,6.44,0V187.74a3.22,3.22,0,1,1,6.43,0v5.67a3.22,3.22,0,1,0,6.43,0v-66.9Z"/><path class="cls-6" d="M118.24,136v66.67a3.22,3.22,0,1,0,6.43,0v-4.15a3.22,3.22,0,1,1,6.44,0v.43a3.22,3.22,0,1,0,6.43,0V194a3.22,3.22,0,1,1,6.44,0v11.36a3.22,3.22,0,1,0,6.43,0v-3.16a3.22,3.22,0,1,1,6.43,0v5.67a3.22,3.22,0,1,0,6.44,0V136Z"/><path class="cls-9" d="M188.35,126.51H85.86a2.3,2.3,0,0,0,0,4.59h21.31a2.29,2.29,0,1,1,0,4.58h-2.44a2.29,2.29,0,0,0,0,4.58H116a2.29,2.29,0,0,1,2.23,2.29h0V205a3.24,3.24,0,0,0,6.47,0V189.2a3.23,3.23,0,1,1,6.46,0v4.15a3.24,3.24,0,0,0,6.47,0v-5.68a3.24,3.24,0,0,1,6.47,0V205a3.24,3.24,0,0,0,6.47,0V194.61a3.24,3.24,0,1,1,6.47,0V217.2a3.22,3.22,0,0,0,6.25,1.12V142.55h0a2.29,2.29,0,0,1,2.24-2.29h10.84a2.29,2.29,0,1,0,0-4.58h-3.91a2.29,2.29,0,1,1,0-4.58h15.84a2.3,2.3,0,0,0,0-4.59Z"/><circle class="cls-6" cx="118.94" cy="140.19" r="4.45"/><circle class="cls-6" cx="125.72" cy="137.41" r="4.05"/><circle class="cls-6" cx="132.16" cy="140.19" r="6.78"/><circle class="cls-6" cx="140.76" cy="135.74" r="5.31"/><circle class="cls-6" cx="149.03" cy="140.19" r="5.22"/><circle class="cls-6" cx="151.81" cy="137.41" r="4.7"/><circle class="cls-6" cx="158.77" cy="140.19" r="5.57"/><circle class="cls-6" cx="166.77" cy="138.11" r="4.7"/><circle class="cls-6" cx="202.88" cy="41.12" r="10.83"/><circle class="cls-6" cx="220.21" cy="36.43" r="10.83"/><circle class="cls-6" cx="235.73" cy="44.01" r="11.55"/><circle class="cls-6" cx="188.8" cy="36.43" r="9.39"/><circle class="cls-6" cx="202.88" cy="30.29" r="13.72"/><path class="cls-6" d="M76.49,59.24a10.27,10.27,0,0,0-1.67.15A16.6,16.6,0,0,0,43.29,58a14.72,14.72,0,1,0,8.39,20.84,16.52,16.52,0,0,0,17-1.63,10.69,10.69,0,1,0,7.8-18Z"/><polygon class="cls-10" points="209.79 78.7 200.11 78.7 199.55 78.7 189.88 78.7 185.27 126.51 199.55 126.51 200.11 126.51 214.39 126.51 209.79 78.7"/><rect class="cls-11" x="199.62" y="58.89" width="0.43" height="7.14"/><path class="cls-12" d="M197.3,66.44A100.75,100.75,0,0,1,188.9,75a3.38,3.38,0,0,0,1.71,5.89,62.51,62.51,0,0,0,9.22.79,62.76,62.76,0,0,0,9.23-.79A3.38,3.38,0,0,0,210.77,75a99.25,99.25,0,0,1-8.4-8.52A3.39,3.39,0,0,0,197.3,66.44Z"/><path class="cls-11" d="M229.29,102.05l-4-2.18-.8-.44-4-2.17-.81-.44-4-2.18-.8-.44-4-2.17-.81-.44-4-2.18-.8-.44-5-2.73,2.64-4.86,6.33,3.44.22-.41.22-.4,2.18-4,.43-.8,2.18-4,.44-.81,2.18-4,.43-.81,2.18-4,.44-.81,2.18-4,.43-.81-.82-.44-5.51-3-1.64-.9-.43.81-2.18,4-.44.81-2.18,4L209,66l-2.18,4-.44.81-2.18,4-.43.8-2.18,4-.44.81-2.64,4.86h0l-.09.17-5-2.73,3.44-6.33-.4-.22-.41-.22-4-2.18-.81-.44-4-2.17-.81-.44-4-2.18-.8-.44-4-2.17-.81-.44-4-2.18-.8-.44-.45.82-3,5.51-.89,1.64.8.44,4,2.18.81.44,4,2.17.81.44,4,2.18.8.44,4,2.17.81.44,4,2.18.8.44,5,2.73-2.73,5-6.33-3.43-.22.4-.22.4-2.18,4-.43.81-2.18,4-.44.8-2.18,4-.43.81-2.18,4-.44.8-2.18,4-.43.81.82.44,5.51,3L183,118l.43-.81,2.18-4,.44-.8,2.18-4,.43-.81,2.18-4,.44-.81,2.18-4,.43-.81,2.18-4,.44-.81,2.73-5h0l.09-.17,5,2.73-3.44,6.33.4.22.4.22,4,2.18.81.44,4,2.17.81.44,4,2.18.81.44,4,2.17.81.44,4,2.18.8.44.45-.82,3-5.51.89-1.64ZM215.91,57.3l5.51,3-2.18,4-5.51-3Zm-2.62,4.82,5.51,3-2.18,4-5.51-3Zm-2.61,4.81,5.51,3-2.18,4-5.51-3Zm-2.62,4.82,5.51,3-2.18,4-5.51-3Zm-2.61,4.81,5.51,3-2.18,4-5.51-3Zm-36.09-6.85,3-5.51,4,2.18-3,5.51Zm4.81,2.62,3-5.51,4,2.17-3,5.51ZM179,74.94l3-5.51,4,2.18-3,5.51Zm4.81,2.62,3-5.51,4,2.17-3,5.51Zm4.82,2.61,3-5.51,4,2.18-3,5.51Zm-6.86,36.09-5.51-3,2.18-4,5.51,3Zm2.62-4.81-5.51-3,2.18-4,5.51,3Zm2.61-4.82-5.51-3,2.18-4,5.51,3Zm2.62-4.82-5.51-3,2.18-4,5.51,3ZM192.22,97l-5.51-3,2.18-4,5.51,3Zm13.93,1.74-4-2.18,3-5.51,4,2.18Zm4.81,2.61-4-2.17,3-5.51,4,2.17Zm4.82,2.62-4-2.18,3-5.51,4,2.18Zm4.82,2.61-4-2.17,3-5.51,4,2.17Zm4.81,2.62-4-2.18,3-5.51,4,2.18Z"/><rect class="cls-13" x="193.04" y="117.26" width="4.56" height="9.26"/><circle class="cls-13" cx="195.32" cy="117.26" r="2.28"/><path class="cls-14" d="M199.62,58.89s-1.56.84-4.73.32-6.33.84-6.84.95a41,41,0,0,1,7.57.56,6,6,0,0,0,4-.19Z"/><path class="cls-15" d="M69.62,60.77s5.24-4.05,9.29,0C78.91,60.77,76.66,53.73,69.62,60.77Z"/><path class="cls-15" d="M78.91,60.77s2.26-7,9.3,0c0,0-5.24-4.05-9.3,0"/><path class="cls-15" d="M84.15,65.59s2.73-2.11,4.84,0C89,65.59,87.82,61.92,84.15,65.59Z"/><path class="cls-15" d="M89,65.59s1.18-3.67,4.85,0c0,0-2.74-2.11-4.85,0"/><path class="cls-15" d="M72.23,64.21s2.94-2.27,5.21,0C77.44,64.21,76.18,60.27,72.23,64.21Z"/><path class="cls-15" d="M77.44,64.21s1.26-3.94,5.2,0c0,0-2.93-2.27-5.2,0"/><rect class="cls-6" x="89.19" y="117.58" width="0.98" height="8.94"/><rect class="cls-6" x="74.34" y="117.58" width="0.98" height="8.94"/><rect class="cls-6" x="59.49" y="117.58" width="0.98" height="8.94"/><rect class="cls-6" x="44.64" y="117.58" width="0.98" height="8.94"/><rect class="cls-6" x="29.79" y="117.58" width="0.98" height="8.94"/><rect class="cls-6" x="59.51" y="88.95" width="0.98" height="61.55" transform="translate(179.73 59.73) rotate(90)"/><rect class="cls-6" x="59.51" y="92.59" width="0.98" height="61.55" transform="translate(183.37 63.37) rotate(90)"/></g></g></svg>